#!OML:ASF F:\VICON\USERDATA\INSTALL\rory3\rory3.ASF
:FULLY-SPECIFIED
:DEGREES
74
root 1.2494335322518226 17.953896138813743 51.18375109825136 -3.64891705174017 2.310306735516364 -3.836012031128657
lfemur -18.67989488527224 -3.2795760178942404 -19.03340565543981
ltibia 27.122859220982956
lfoot -7.707391978665147 -0.16017832710584612
ltoes -9.843071387747553
rfemur 2.154298386322832 2.6152064720651733 27.94682440977222
rtibia 42.70750473303437
rfoot -6.7613632545311235 -10.274288240088815
rtoes 3.482664733417137
lowerback 8.863278884335385 0.8890944327244941 4.6519556196031235
upperback -0.15191146877160666 2.2890326900158326 1.2108023086849307
thorax -4.7628899103785765 1.036735878676078 -2.1273272306973032
lowerneck -15.957661769387375 -3.4095367242118995 -1.750145682814428
upperneck 21.732174444903688 -4.488949013999857 1.1896728324226444
head 9.668002177421508 -2.1183505118484085 0.0450021783213214
lclavicle 5.858923205579369e-16 -6.870510400360792e-16
lhumerus -35.23931489820886 7.017804359768313 81.2987776499277
lradius 24.37188873257726
lwrist 8.956197342927322
lhand -28.756844507318952 19.412495418665493
lfingers nan
lthumb -2.0580984117138996 49.4571947058558
rclavicle 4.388960854691899e-16 -8.118096051754505e-16
rhumerus -24.85585813737747 -14.435997574153186 -77.16828693552104
rradius 32.85441143954179
rwrist 0.749020505824384
rhand -17.664342480800645 21.82899737086786
rfingers nan
rthumb 8.677553155630763 -7.731985784290502
75
root 1.2579077080727465 17.953594528740346 51.95689802096232 -3.7002757493862624 2.3346494401426465 -2.8119334638279265
lfemur -16.101657730235047 -3.5886698369198227 -20.448987829167166
ltibia 23.343428426357896
lfoot -7.7168400218354165 -2.4661746032692333
ltoes -9.117965931187046
rfemur 0.6003993686004048 2.2535192260905363 26.692208398708473
rtibia 46.6124027961637
rfoot -5.96605402008529 -10.244777094660275
rtoes 5.519874358294784
lowerback 8.790689146386814 0.730683211709404 3.6906915717754303
upperback -0.11988474440877223 1.9157070063056234 1.0704849190092358
thorax -4.763497685192613 0.8764996341543541 -1.7852550262861833
lowerneck -16.00096665036573 -3.4036617393754867 -1.7565487703585618
upperneck 21.631843287803203 -4.491366508302383 1.3669645118020979
head 9.65135907480061 -2.1082034437896016 0.1250521595608775
lclavicle 5.836742584465222e-16 -6.8754567952792955e-16
lhumerus -34.70141409816664 6.489995139278152 81.2455510483543
lradius 24.831611108930126
lwrist 8.78498045727321
lhand -28.737586830151823 19.486219169054205
lfingers nan
lthumb -2.026219562117995 49.56709487885718
rclavicle 4.351879336864021e-16 -8.124351258886358e-16
rhumerus -25.113893403419414 -14.031204715743582 -77.7210958332682
rradius 32.66481790657657
rwrist 1.0752611966574528
rhand -17.664942279394275 21.82160612336706
rfingers nan
rthumb 8.676090225720161 -7.717640445914887
76
root 1.2463441700060511 17.944035363806186 52.07104904916645 -3.8058397213381188 2.1861300513236364 -2.161134920566335
lfemur -13.417140728765958 -3.801914648206017 -21.534047582481534
ltibia 21.09261875615161
lfoot -7.957808184739676 -3.692439453188628
ltoes -8.500733426903809
rfemur -2.037084747566169 1.8508599921510884 25.65153213438031
rtibia 51.34856617480195
rfoot -5.7850508760621056 -9.773873955998681
rtoes 7.096314794326206
lowerback 8.79763345264996 0.5414570310086209 2.8597885154928506
upperback -0.07346590464935177 1.524841039361434 0.9809868277922884
thorax -4.82205601562556 0.7002118500003873 -1.3882736963203914
lowerneck -16.049514981731846 -3.3886763847733747 -1.7262094832103259
upperneck 21.512886470833188 -4.478148836310971 1.5213521858785422
head 9.627186467438499 -2.093418841126308 0.19638253020002594
lclavicle 5.811494095383219e-16 -6.87756236427209e-16
lhumerus -33.854653410526794 5.743403312677047 81.19946313055188
lradius 25.23450998879145
lwrist 8.65145291188006
lhand -28.703105226262483 19.60142237383524
lfingers nan
lthumb -1.97993043831268 49.67583909008025
rclavicle 4.3097159039617846e-16 -8.121776090461003e-16
rhumerus -25.471415550555335 -13.911770918881583 -78.32012998158069
rradius 32.34185633488384
rwrist 1.570536060478493
rhand -17.66098028485747 21.8497958259183
rfingers nan
rthumb 8.660580390449892 -7.710281733299204
77
root 1.2310473395459685 17.93211320068647 52.74264039099014 -3.8464277707670567 2.0899866316160987 -1.6990518386313749
lfemur -10.866347699553762 -4.0028652399319995 -22.417813103215558
ltibia 20.260431313214376
lfoot -8.996886499879722 -4.391305906071368
ltoes -7.271108628367999
rfemur -5.634292956570158 1.3260832935434035 24.610188644904827
rtibia 56.607946814554104
rfoot -5.964761138437823 -8.703986261202799
rtoes 7.928922419796569
lowerback 8.86787585709956 0.3020942779211978 2.1650366294877594
upperback -0.027727246344334378 1.0861619928491517 0.9306604542722803
thorax -4.927003729828644 0.49653647083195873 -0.9451594418728219
lowerneck -16.141630447587882 -3.384275256533585 -1.6999926661887907
upperneck 21.398223906604418 -4.475130360470214 1.6598067872965694
head 9.60490674426692 -2.082466369119741 0.25495856788428445
lclavicle 5.779298290003865e-16 -6.882113162695573e-16
lhumerus -32.90248802592551 4.8693855590083865 81.10009897287041
lradius 25.63182074424848
lwrist 8.52358611442088
lhand -28.62817798079595 19.730976329325276
lfingers nan
lthumb -1.909710700184241 49.792647800590736
rclavicle 4.2705692234948405e-16 -8.110013882491274e-16
rhumerus -25.918533291502776 -14.11192393764551 -78.94454966138379
rradius 31.921504841598452
rwrist 2.0989611840153604
rhand -17.657779083798946 21.879475065316242
rfingers nan
rthumb 8.684185220225016 -7.626906970627268
78
root 1.1958237223850787 17.909172057974622 52.495091356285975 -3.9959175023876248 1.7476185364458505 -0.944599124825952
lfemur -8.162758768430834 -4.131803194324476 -23.485350117159
ltibia 20.266655050673865
lfoot -9.093833907493947 -2.81040804017475
ltoes -7.302065921500496
rfemur -9.625770583914408 0.7604466299668853 23.30980712810229
rtibia 61.48624314571781
rfoot -6.31991586451892 -7.078624254595306
rtoes 8.090229200763728
lowerback 8.99116171697939 0.020500207420267258 1.1501038752483017
upperback 0.03554503142587555 0.5613797950529179 0.8487559091359108
thorax -5.032485834057318 0.2520458492340019 -0.3773558203780957
lowerneck -16.22856592584394 -3.360046481871403 -1.6394517993393223
upperneck 21.29552133561954 -4.439871764571935 1.7476836322275249
head 9.58944509946701 -2.0624199825487977 0.2984965253047178
lclavicle 5.71031700093793e-16 -6.910808219830669e-16
lhumerus -31.838696126880194 3.997773364323356 80.95918825201653
lradius 26.054526073488073
lwrist 8.293722847363025
lhand -28.509402727935104 19.877888376762414
lfingers nan
lthumb -1.7927131216653427 49.901688522191726
rclavicle 4.2382409338233146e-16 -8.086124043821507e-16
rhumerus -26.468163163983892 -14.624742344538008 -79.57332336137671
rradius 31.45733400555394
rwrist 2.351756655189562
rhand -17.665754117093396 21.871267062196484
rfingers nan
rthumb 8.664544442636611 -7.662336417943056
